<?xml version="1.0" encoding="UTF-8"?>
<svg width="512px" height="659px" viewBox="0 0 512 659" version="1.1" xmlns="http://www.w3.org/2000/svg" xmlns:xlink="http://www.w3.org/1999/xlink">
    <!-- Generator: Sketch 63.1 (92452) - https://sketch.com -->
    <title>comment-alt-smile-regular</title>
    <desc>Created with Sketch.</desc>
    <g id="Page-1" stroke="none" stroke-width="1" fill="none" fill-rule="evenodd">
        <g id="comment-alt-smile-regular" fill="currentcolor" fill-rule="nonzero">
            <path d="M448,147 L64,147 C28.7,147 0,175.7 0,211 L0,499 C0,534.3 28.7,563 64,563 L160,563 L160,647 C160,654.1 165.8,659 172,659 C174.4,659 176.9,658.3 179.1,656.6 L304,563 L448,563 C483.3,563 512,534.3 512,499 L512,211 C512,175.7 483.3,147 448,147 Z M464,499 C464,507.8 456.8,515 448,515 L288,515 L275.2,524.6 L208,575 L208,515 L64,515 C55.2,515 48,507.8 48,499 L48,211 C48,202.2 55.2,195 64,195 L448,195 C456.8,195 464,202.2 464,211 L464,499 Z M325.8,387.2 C308.5,407.4 283.1,419 256,419 C228.9,419 203.5,407.4 186.2,387.2 C177.6,377.1 162.4,375.9 152.4,384.5 C142.4,393.1 141.2,408.3 149.7,418.3 C176.2,449.3 214.9,467 256,467 C297.1,467 335.8,449.2 362.2,418.3 C370.8,408.2 369.6,393.1 359.5,384.5 C349.5,375.9 334.4,377.1 325.8,387.2 Z M192,339 C209.7,339 224,324.7 224,307 C224,289.3 209.7,275 192,275 C174.3,275 160,289.3 160,307 C160,324.7 174.3,339 192,339 Z M320,339 C337.7,339 352,324.7 352,307 C352,289.3 337.7,275 320,275 C302.3,275 288,289.3 288,307 C288,324.7 302.3,339 320,339 Z" id="Shape"></path>
            <g id="Group" transform="translate(21.000000, 0.000000)">
                <g id="star-solid">
                    <path d="M54.901694,3.9308275 L39.8888234,33.148308 L6.29953725,37.8487032 C0.275996537,38.6872714 -2.13801787,45.8151009 2.23019868,49.8976038 L26.531277,72.6272148 L20.7836237,104.735549 C19.7490461,110.539323 26.117446,114.886637 31.4512683,112.172324 L61.5,97.0118945 L91.5487317,112.172324 C96.882554,114.864569 103.250954,110.539323 102.216376,104.735549 L96.468723,72.6272148 L120.769801,49.8976038 C125.138018,45.8151009 122.724003,38.6872714 116.700463,37.8487032 L83.1111766,33.148308 L68.098306,3.9308275 C65.4084043,-1.27712219 57.6145863,-1.34332494 54.901694,3.9308275 Z" id="Path"></path>
                </g>
                <g id="star-solid" transform="translate(173.000000, 0.000000)">
                    <path d="M54.901694,3.9308275 L39.8888234,33.148308 L6.29953725,37.8487032 C0.275996537,38.6872714 -2.13801787,45.8151009 2.23019868,49.8976038 L26.531277,72.6272148 L20.7836237,104.735549 C19.7490461,110.539323 26.117446,114.886637 31.4512683,112.172324 L61.5,97.0118945 L91.5487317,112.172324 C96.882554,114.864569 103.250954,110.539323 102.216376,104.735549 L96.468723,72.6272148 L120.769801,49.8976038 C125.138018,45.8151009 122.724003,38.6872714 116.700463,37.8487032 L83.1111766,33.148308 L68.098306,3.9308275 C65.4084043,-1.27712219 57.6145863,-1.34332494 54.901694,3.9308275 Z" id="Path"></path>
                </g>
                <g id="star-solid" transform="translate(346.000000, 0.000000)">
                    <path d="M54.901694,3.9308275 L39.8888234,33.148308 L6.29953725,37.8487032 C0.275996537,38.6872714 -2.13801787,45.8151009 2.23019868,49.8976038 L26.531277,72.6272148 L20.7836237,104.735549 C19.7490461,110.539323 26.117446,114.886637 31.4512683,112.172324 L61.5,97.0118945 L91.5487317,112.172324 C96.882554,114.864569 103.250954,110.539323 102.216376,104.735549 L96.468723,72.6272148 L120.769801,49.8976038 C125.138018,45.8151009 122.724003,38.6872714 116.700463,37.8487032 L83.1111766,33.148308 L68.098306,3.9308275 C65.4084043,-1.27712219 57.6145863,-1.34332494 54.901694,3.9308275 Z" id="Path"></path>
                </g>
            </g>
        </g>
    </g>
</svg>
